# File created by Blade
# Date/Time:  Wed Apr 08 14:10:43 2015
#---------------------------------------------------------
:version 1.10
:name HOM
:units
  mass 1.0
  length 1.000000
  angle deg
:documentation
     Acclaim Skeleton File
:root
   axis xyz
   order TX TY TZ RX RY RZ
   position 0.000000 0.000000 0.000000
   orientation 0 0 0
:bonedata
   begin
      id 1
      name Spine_dum
      direction 0.000000 1.000000 0.000000
      length 4.885285
      axis 0.0 0.0 0.0 xyz
   end
   begin
      id 2
      name LeftUpLeg_dum
      direction 1.000000 0.000000 0.000000
      length 2.672193
      axis 0.0 0.0 0.0 xyz
   end
   begin
      id 3
      name RightUpLeg_dum
      direction -1.000000 0.000000 0.000000
      length 2.672193
      axis 0.0 0.0 0.0 xyz
   end
   begin
      id 4
      name Spine
      direction 0.000000 1.000000 0.000000
      length 0.000000
      axis 0.0 0.0 0.0 xyz
      dof rx ry rz
   end
   begin
      id 5
      name Spine_dum1
      direction 0.000000 1.000000 0.000000
      length 16.494159
      axis 0.0 0.0 0.0 xyz
   end
   begin
      id 6
      name Spine_dum2
      direction 0.000000 1.000000 0.000000
      length 10.663448
      axis 0.0 0.0 0.0 xyz
   end
   begin
      id 7
      name Spine_dum3
      direction 0.000000 1.000000 0.000000
      length 10.663448
      axis 0.0 0.0 0.0 xyz
   end
   begin
      id 8
      name Head
      direction 0.000000 1.000000 0.000000
      length 4.527550
      axis 0.0 0.0 0.0 xyz
      dof rx ry rz
   end
   begin
      id 9
      name LeftShoulder
      direction 1.000000 0.000000 0.000000
      length 7.531907
      axis 0.0 0.0 -90.0 xyz
      dof rx ry rz
   end
   begin
      id 10
      name LeftArm
      direction 1.000000 0.000000 0.000000
      length 10.229199
      axis 0.0 0.0 -90.0 xyz
      dof rx ry rz
   end
   begin
      id 11
      name LeftForeArm
      direction 1.000000 0.000000 0.000000
      length 8.673495
      axis 0.0 0.0 -90.0 xyz
      dof ry rz rx
   end
   begin
      id 12
      name LeftHand
      direction 0.000000 0.000000 0.000000
      length 0.000000
      axis 0.0 0.0 -90.0 xyz
      dof rx ry rz
   end
   begin
      id 13
      name LeftHand_dum1
      direction 0.000000 0.000000 0.000000
      length 0.000000
      axis 0.0 0.0 -90.0 xyz
   end
   begin
      id 14
      name LeftHand_dum2
      direction 1.000000 0.000000 0.000000
      length 3.937000
      axis 0.0 0.0 -90.0 xyz
   end
   begin
      id 15
      name LeftHandThumb1
      direction 0.000000 0.000000 1.000000
      length 3.937000
      axis 0.0 0.0 -90.0 xyz
      dof rx rz ry
   end
   begin
      id 16
      name RightShoulder
      direction -1.000000 0.000000 0.000000
      length 7.531907
      axis 0.0 0.0 90.0 xyz
      dof rx ry rz
   end
   begin
      id 17
      name RightArm
      direction -1.000000 0.000000 0.000000
      length 10.229199
      axis 0.0 0.0 90.0 xyz
      dof rx ry rz
   end
   begin
      id 18
      name RightForeArm
      direction -1.000000 0.000000 0.000000
      length 8.673495
      axis 0.0 0.0 90.0 xyz
      dof ry rz rx
   end
   begin
      id 19
      name RightHand
      direction 0.000000 0.000000 0.000000
      length 0.000000
      axis 0.0 0.0 90.0 xyz
      dof rx ry rz
   end
   begin
      id 20
      name RightHand_dum1
      direction 0.000000 0.000000 0.000000
      length 0.000000
      axis 0.0 0.0 90.0 xyz
   end
   begin
      id 21
      name RightHand_dum2
      direction -1.000000 0.000000 0.000000
      length 3.937000
      axis 0.0 0.0 90.0 xyz
   end
   begin
      id 22
      name RightHandThumb1
      direction 0.000000 0.000000 1.000000
      length 3.937000
      axis 0.0 0.0 90.0 xyz
      dof rx rz ry
   end
   begin
      id 23
      name LeftUpLeg
      direction 0.000000 -1.000000 0.000000
      length 16.263388
      axis 0.0 0.0 0.0 xyz
      dof rx ry rz
   end
   begin
      id 24
      name LeftLeg
      direction 0.000000 -1.000000 0.000000
      length 14.328163
      axis 0.0 0.0 0.0 xyz
      dof rx ry rz
   end
   begin
      id 25
      name LeftFoot
      direction 0.000000 -0.258819 0.965926
      length 5.031290
      axis 15.0 0.0 0.0 xyz
      dof rx ry rz
   end
   begin
      id 26
      name LeftToeBase
      direction 0.000000 0.000000 1.000000
      length 2.952750
      axis 0.0 0.0 0.0 xyz
      dof rx ry rz
   end
   begin
      id 27
      name RightUpLeg
      direction 0.000000 -1.000000 0.000000
      length 16.263388
      axis 0.0 0.0 0.0 xyz
      dof rx ry rz
   end
   begin
      id 28
      name RightLeg
      direction 0.000000 -1.000000 0.000000
      length 14.328163
      axis 0.0 0.0 0.0 xyz
      dof rx ry rz
   end
   begin
      id 29
      name RightFoot
      direction 0.000000 -0.258819 0.965926
      length 5.031290
      axis 15.0 0.0 0.0 xyz
      dof rx ry rz
   end
   begin
      id 30
      name RightToeBase
      direction 0.000000 0.000000 1.000000
      length 2.952750
      axis 0.0 0.0 0.0 xyz
      dof rx ry rz
   end
:hierarchy
   begin
      root Spine_dum LeftUpLeg_dum RightUpLeg_dum
      Spine_dum Spine
      LeftUpLeg_dum LeftUpLeg
      RightUpLeg_dum RightUpLeg
      Spine Spine_dum1 Spine_dum2 Spine_dum3
      Spine_dum1 Head
      Spine_dum2 LeftShoulder
      Spine_dum3 RightShoulder
      LeftShoulder LeftArm
      LeftArm LeftForeArm
      LeftForeArm LeftHand
      LeftHand LeftHand_dum1 LeftHand_dum2
      LeftHand_dum1 LeftHandThumb1
      RightShoulder RightArm
      RightArm RightForeArm
      RightForeArm RightHand
      RightHand RightHand_dum1 RightHand_dum2
      RightHand_dum1 RightHandThumb1
      LeftUpLeg LeftLeg
      LeftLeg LeftFoot
      LeftFoot LeftToeBase
      RightUpLeg RightLeg
      RightLeg RightFoot
      RightFoot RightToeBase
   end

# File created by Blade
# Date/Time:  Wed Apr 08 14:10:35 2015
# Frame Rate: 120.000 fps
#------------------------------------------------------
:FULLY-SPECIFIED
:DEGREES
91
root -0.975296 32.739334 -17.378400 5.532900 3.533193 -0.381782
Spine -6.915378 -7.056378 0.416854
Head 19.751918 -2.380478 -3.690721
LeftShoulder -21.578909 44.466190 9.593617
LeftArm 61.085116 -36.964593 -75.167015
LeftForeArm -7.498920 -0.000000 -0.883430
LeftHand 3.136058 -0.000000 -7.964447
LeftHandThumb1 -26.253704 0.000000 33.147579
RightShoulder -5.353541 -2.950257 -22.767688
RightArm 12.523016 8.250218 57.977246
RightForeArm -8.233259 -0.000000 6.089869
RightHand 5.112780 -0.000000 -0.254377
RightHandThumb1 -24.326973 -0.000000 -32.862282
LeftUpLeg -12.545747 -10.613280 4.760338
LeftLeg 19.472589 -0.000000 -0.000000
LeftFoot -12.476085 9.652722 -20.029489
LeftToeBase -10.711509 -0.000000 0.000000
RightUpLeg 1.134715 1.644454 4.615966
RightLeg -8.373077 -0.000000 0.000000
RightFoot -2.615795 -14.559454 6.611403
RightToeBase -4.708667 -0.000000 0.000000
92
root -0.971016 32.735039 -17.396705 5.541669 3.588360 -0.430543
Spine -6.887986 -7.013510 0.502819
Head 19.844197 -2.360085 -3.695800
LeftShoulder -21.544407 44.605352 9.100594
LeftArm 61.114041 -35.848505 -75.864017
LeftForeArm -8.101780 -0.000000 -0.872210
LeftHand 2.958790 -0.000000 -9.575365
LeftHandThumb1 -26.253704 0.000000 33.147579
RightShoulder -5.290655 -3.176601 -22.377289
RightArm 12.585811 7.581036 58.815445
RightForeArm -7.830684 -0.000000 5.957351
RightHand 4.832931 -0.000000 0.602125
RightHandThumb1 -24.326973 -0.000000 -32.862282
LeftUpLeg -12.733314 -10.673448 4.795091
LeftLeg 19.775212 -0.000000 -0.000000
LeftFoot -12.705010 9.660824 -20.076925
LeftToeBase -10.488750 -0.000000 0.000000
RightUpLeg 1.098721 1.581121 4.663735
RightLeg -8.398458 -0.000000 0.000000
RightFoot -2.534061 -14.590207 6.504391
RightToeBase -4.861904 -0.000000 0.000000
93
root -0.959727 32.731544 -17.408491 5.517330 3.608086 -0.430589
Spine -6.843238 -6.939464 0.530503
Head 19.980451 -2.345563 -3.675328
LeftShoulder -21.533428 44.748758 8.621077
LeftArm 61.152701 -34.679964 -76.610808
LeftForeArm -8.886599 -0.000000 -0.801837
LeftHand 2.607427 -0.000000 -10.954528
LeftHandThumb1 -26.253704 0.000000 33.147579
RightShoulder -5.211983 -3.570851 -22.006225
RightArm 12.756507 6.895809 59.687283
RightForeArm -6.911926 -0.000000 5.857578
RightHand 3.935687 -0.000000 1.926010
RightHandThumb1 -24.326973 -0.000000 -32.862282
LeftUpLeg -12.836620 -10.746353 4.752736
LeftLeg 20.016542 -0.000000 -0.000000
LeftFoot -13.029747 9.703208 -20.256322
LeftToeBase -10.129669 -0.000000 0.000000
RightUpLeg 1.111582 1.534727 4.649108
RightLeg -8.426007 -0.000000 0.000000
RightFoot -2.484443 -14.588360 6.417531
RightToeBase -4.910923 -0.000000 0.000000
94
root -0.949622 32.728284 -17.423985 5.516957 3.642917 -0.450739
Spine -6.817236 -6.891165 0.586217
Head 20.107451 -2.334558 -3.654434
LeftShoulder -21.639592 44.996580 8.011187
LeftArm 61.312901 -33.442772 -77.287432
LeftForeArm -9.845011 -0.000000 -0.797273
LeftHand 2.395800 0.000000 -12.286654
LeftHandThumb1 -26.253704 0.000000 33.147579
RightShoulder -5.086880 -3.928850 -21.633137
RightArm 12.862744 6.360246 60.561994
RightForeArm -6.360890 -0.000000 5.790125
RightHand 3.640129 -0.000000 2.524907
RightHandThumb1 -24.326973 -0.000000 -32.862282
LeftUpLeg -12.985826 -10.821914 4.729696
LeftLeg 20.294839 -0.000000 -0.000000
LeftFoot -13.393895 9.777498 -20.357266
LeftToeBase -9.511398 -0.000000 0.000000
RightUpLeg 1.077686 1.475280 4.656558
RightLeg -8.420788 -0.000000 0.000000
RightFoot -2.444045 -14.587766 6.328678
RightToeBase -4.998089 -0.000000 0.000000
95
root -0.941524 32.724816 -17.445988 5.543268 3.679542 -0.500937
Spine -6.798758 -6.830266 0.664510
Head 20.200984 -2.350637 -3.600028
LeftShoulder -21.586741 44.987494 7.603920
LeftArm 61.077490 -32.124415 -77.760384
LeftForeArm -10.867888 -0.000000 -0.740518
LeftHand 2.101190 -0.000000 -13.521949
LeftHandThumb1 -26.253704 0.000000 33.147579
RightShoulder -4.960637 -4.290202 -21.231691
RightArm 12.935265 5.814900 61.388249
RightForeArm -5.903533 -0.000000 5.821247
RightHand 3.655003 -0.000000 2.622859
RightHandThumb1 -24.326973 -0.000000 -32.862282
LeftUpLeg -13.195318 -10.839542 4.736080
LeftLeg 20.617921 -0.000000 -0.000000
LeftFoot -13.712503 9.828217 -20.372772
LeftToeBase -9.046327 -0.000000 0.000000
RightUpLeg 1.001738 1.491455 4.693013
RightLeg -8.411200 -0.000000 0.000000
RightFoot -2.411341 -14.655494 6.293211
RightToeBase -4.983033 -0.000000 0.000000
96
root -0.929932 32.719976 -17.458445 5.531421 3.730398 -0.505647
Spine -6.748607 -6.795988 0.678498
Head 20.298117 -2.479814 -3.613764
LeftShoulder -21.515580 44.940307 7.266574
LeftArm 60.787774 -30.841433 -78.350058
LeftForeArm -11.756170 -0.000000 -0.613689
LeftHand 1.662125 -0.000000 -14.806272
LeftHandThumb1 -26.253704 0.000000 33.147579
RightShoulder -4.881144 -4.727864 -20.827065
RightArm 13.133352 5.300884 62.243664
RightForeArm -4.956853 -0.000000 5.794562
RightHand 3.487479 -0.000000 2.855287
RightHandThumb1 -24.326973 -0.000000 -32.862282
LeftUpLeg -13.331859 -10.853220 4.669412
LeftLeg 20.924238 -0.000000 -0.000000
LeftFoot -14.084382 9.890765 -20.360140
LeftToeBase -8.212402 -0.000000 0.000000
RightUpLeg 0.991967 1.444164 4.683481
RightLeg -8.410920 -0.000000 0.000000
RightFoot -2.401609 -14.664154 6.205114
RightToeBase -5.096647 -0.000000 0.000000
97
root -0.917496 32.715570 -17.473489 5.517987 3.778805 -0.529680
Spine -6.701550 -6.760199 0.737833
Head 20.404440 -2.527001 -3.603415
LeftShoulder -21.438204 44.896887 6.873639
LeftArm 60.531019 -29.622410 -78.978634
LeftForeArm -12.763977 0.000000 -0.505712
LeftHand 1.259434 -0.000000 -16.248806
LeftHandThumb1 -26.253704 0.000000 33.147579
RightShoulder -4.798317 -5.120894 -20.467495
RightArm 13.303858 4.886954 63.148815
RightForeArm -4.255297 -0.000000 5.765441
RightHand 3.516684 -0.000000 3.437089
RightHandThumb1 -24.326973 -0.000000 -32.862282
LeftUpLeg -13.473569 -10.851240 4.622166
LeftLeg 21.239207 -0.000000 -0.000000
LeftFoot -14.325530 9.906040 -20.291034
LeftToeBase -8.419720 -0.000000 0.000000
RightUpLeg 0.974937 1.399618 4.690178
RightLeg -8.410813 -0.000000 0.000000
RightFoot -2.379732 -14.681026 6.150712
RightToeBase -5.157374 -0.000000 0.000000
98
root -0.904252 32.711158 -17.488551 5.499775 3.832111 -0.554069
Spine -6.647411 -6.676013 0.783185
Head 20.507340 -2.639099 -3.549196
LeftShoulder -21.332816 44.940567 6.487828
LeftArm 60.380950 -28.385223 -79.627939
LeftForeArm -13.783469 -0.000000 -0.470438
LeftHand 1.183148 -0.000000 -17.730323
LeftHandThumb1 -26.253704 0.000000 33.147579
RightShoulder -4.784972 -5.461721 -20.105213
RightArm 13.439813 4.502026 64.067492
RightForeArm -3.677905 -0.000000 5.738309
RightHand 3.439285 -0.000000 4.216667
RightHandThumb1 -24.326973 -0.000000 -32.862282
LeftUpLeg -13.598964 -10.847649 4.556815
LeftLeg 21.534593 -0.000000 -0.000000
LeftFoot -14.625385 10.011150 -20.224790
LeftToeBase -8.278657 -0.000000 0.000000
RightUpLeg 0.975630 1.421574 4.691336
RightLeg -8.431620 -0.000000 0.000000
RightFoot -2.349737 -14.749190 6.093222
RightToeBase -5.212018 -0.000000 0.000000
99
root -0.890028 32.706217 -17.500293 5.465669 3.913776 -0.582773
Spine -6.584496 -6.641935 0.837174
Head 20.615484 -2.760971 -3.513835
LeftShoulder -21.223293 44.991474 6.104660
LeftArm 60.223696 -27.233001 -80.364315
LeftForeArm -14.553906 0.000000 -0.389342
LeftHand 1.002884 0.000000 -19.236051
LeftHandThumb1 -26.253704 0.000000 33.147579
RightShoulder -4.796672 -5.772842 -19.759631
RightArm 13.607339 4.075193 65.012808
RightForeArm -3.133644 -0.000000 5.659422
RightHand 3.395268 -0.000000 4.787757
RightHandThumb1 -24.326973 -0.000000 -32.862282
LeftUpLeg -13.701413 -10.909709 4.492366
LeftLeg 21.831702 -0.000000 -0.000000
LeftFoot -14.977530 10.124132 -20.304568
LeftToeBase -8.029916 -0.000000 0.000000
RightUpLeg 0.997987 1.365886 4.700015
RightLeg -8.455534 -0.000000 0.000000
RightFoot -2.324211 -14.781230 6.038895
RightToeBase -5.235105 -0.000000 0.000000
100
root -0.875473 32.700746 -17.512455 5.418871 4.010204 -0.633313
Spine -6.509862 -6.638329 0.918923
Head 20.719960 -2.871613 -3.490576
LeftShoulder -21.059673 45.024475 5.789668
LeftArm 59.959310 -26.055244 -81.063902
LeftForeArm -15.264282 -0.000000 -0.278161
LeftHand 0.870443 -0.000000 -20.451418
LeftHandThumb1 -26.253704 0.000000 33.147579
RightShoulder -4.800723 -5.904321 -19.488717
RightArm 13.625619 3.705176 66.023940
RightForeArm -2.496633 -0.000000 5.620575
RightHand 3.095724 -0.000000 5.622447
RightHandThumb1 -24.326973 -0.000000 -32.862282
LeftUpLeg -13.792543 -10.955548 4.446265
LeftLeg 22.134290 -0.000000 -0.000000
LeftFoot -15.390637 10.131914 -20.609560
LeftToeBase -7.952738 -0.000000 0.000000
RightUpLeg 1.034838 1.327886 4.728451
RightLeg -8.484308 -0.000000 0.000000
RightFoot -2.324360 -14.820801 6.054858
RightToeBase -5.249032 -0.000000 0.000000
101
root -0.862371 32.695846 -17.530748 5.406485 4.080020 -0.702627
Spine -6.454789 -6.626082 1.014254
Head 20.800172 -2.962417 -3.449239
LeftShoulder -20.887601 45.030282 5.475387
LeftArm 59.667986 -24.930313 -81.718545
LeftForeArm -15.633889 0.000000 -0.188675
LeftHand 0.680046 -0.000000 -22.002473
LeftHandThumb1 -26.253704 0.000000 33.147579
RightShoulder -4.806503 -6.020732 -19.233594
RightArm 13.643014 3.315938 67.059016
RightForeArm -1.944191 -0.000000 5.610948
RightHand 2.907628 0.000000 6.438892
RightHandThumb1 -24.326973 -0.000000 -32.862282
LeftUpLeg -13.931057 -10.939629 4.418677
LeftLeg 22.469272 -0.000000 -0.000000
LeftFoot -15.847038 10.107100 -20.883781
LeftToeBase -7.464632 -0.000000 0.000000
RightUpLeg 1.009444 1.348922 4.773605
RightLeg -8.480311 -0.000000 0.000000
RightFoot -2.301284 -14.901497 6.006016
RightToeBase -5.284969 -0.000000 0.000000
102
root -0.848014 32.690834 -17.544696 5.374663 4.153272 -0.774602
Spine -6.399026 -6.626869 1.114628
Head 20.911541 -3.036122 -3.425989
LeftShoulder -20.690679 45.071382 5.171995
LeftArm 59.304384 -23.755640 -82.193952
LeftForeArm -15.992941 -0.000000 -0.113988
LeftHand 0.459636 -0.000000 -23.622199
LeftHandThumb1 -26.253704 0.000000 33.147579
RightShoulder -4.793459 -6.083405 -19.021521
RightArm 13.589612 2.918565 68.113033
RightForeArm -1.305977 -0.000000 5.604824
RightHand 2.675421 -0.000000 7.460349
RightHandThumb1 -24.326973 -0.000000 -32.862282
LeftUpLeg -14.034168 -10.888077 4.376957
LeftLeg 22.815073 -0.000000 -0.000000
LeftFoot -16.250344 9.990615 -21.154967
LeftToeBase -7.467446 -0.000000 0.000000
RightUpLeg 1.006945 1.313570 4.821269
RightLeg -8.468152 -0.000000 0.000000
RightFoot -2.311171 -14.911932 5.990537
RightToeBase -5.284471 -0.000000 0.000000
103
root -0.828736 32.685812 -17.553431 5.321861 4.254629 -0.822418
Spine -6.332543 -6.665466 1.195523
Head 21.031905 -3.105460 -3.403348
LeftShoulder -20.532196 45.198177 4.861451
LeftArm 58.973865 -22.449971 -82.582620
LeftForeArm -16.601848 -0.000000 -0.026075
LeftHand 0.402438 -0.000000 -24.152737
LeftHandThumb1 -26.253704 0.000000 33.147579
RightShoulder -4.782015 -6.143106 -18.815141
RightArm 13.541820 2.578095 69.149620
RightForeArm -0.534213 -0.000000 5.560430
RightHand 2.500395 -0.000000 8.080204
RightHandThumb1 -24.326973 -0.000000 -32.862282
LeftUpLeg -14.093644 -10.852930 4.286209
LeftLeg 23.178432 -0.000000 -0.000000
LeftFoot -16.718206 9.761663 -21.464404
LeftToeBase -7.240966 -0.000000 0.000000
RightUpLeg 1.065274 1.295610 4.837189
RightLeg -8.518427 -0.000000 0.000000
RightFoot -2.284767 -14.975499 5.997038
RightToeBase -5.343750 -0.000000 0.000000
